<?xml version="1.0" encoding="UTF-8" standalone="no"?>
<svg
   xmlns:dc="http://purl.org/dc/elements/1.1/"
   xmlns:cc="http://creativecommons.org/ns#"
   xmlns:rdf="http://www.w3.org/1999/02/22-rdf-syntax-ns#"
   xmlns:svg="http://www.w3.org/2000/svg"
   xmlns="http://www.w3.org/2000/svg"
   xmlns:sodipodi="http://sodipodi.sourceforge.net/DTD/sodipodi-0.dtd"
   xmlns:inkscape="http://www.inkscape.org/namespaces/inkscape"
   width="24"
   height="24"
   fill="none"
   viewBox="0 0 24 24"
   version="1.1"
   id="svg11"
   sodipodi:docname="plus.svg"
   inkscape:version="0.92.5 (2060ec1f9f, 2020-04-08)">
  <metadata
     id="metadata15">
    <rdf:RDF>
      <cc:Work
         rdf:about="">
        <dc:format>image/svg+xml</dc:format>
        <dc:type
           rdf:resource="http://purl.org/dc/dcmitype/StillImage" />
      </cc:Work>
    </rdf:RDF>
  </metadata>
  <sodipodi:namedview
     pagecolor="#ffffff"
     bordercolor="#666666"
     borderopacity="1"
     objecttolerance="10"
     gridtolerance="10"
     guidetolerance="10"
     inkscape:pageopacity="0"
     inkscape:pageshadow="2"
     inkscape:window-width="1920"
     inkscape:window-height="1021"
     id="namedview13"
     showgrid="false"
     inkscape:zoom="9.8333333"
     inkscape:cx="12"
     inkscape:cy="12"
     inkscape:window-x="0"
     inkscape:window-y="28"
     inkscape:window-maximized="1"
     inkscape:current-layer="g4" />
  <g
     clip-path="url(#a)"
     id="g4">
    <path
       fill="#374957"
       d="M12 0a12 12 0 1 0 12 12A12.013 12.013 0 0 0 12 0Zm0 22a10 10 0 1 1 10-10 10.011 10.011 0 0 1-10 10Zm5-10a1 1 0 0 1-1 1h-3v3a1 1 0 0 1-2 0v-3H8a1 1 0 0 1 0-2h3V8a1 1 0 0 1 2 0v3h3a1 1 0 0 1 1 1Z"
       id="path2"
       style="fill:#ffffff;fill-opacity:1" />
  </g>
  <defs
     id="defs9">
    <clipPath
       id="a">
      <path
         fill="#fff"
         d="M0 0h24v24H0z"
         id="path6" />
    </clipPath>
  </defs>
</svg>
